<?xml version="1.0" standalone="no"?>
<!DOCTYPE svg PUBLIC "-//W3C//DTD SVG 20010904//EN"
 "http://www.w3.org/TR/2001/REC-SVG-20010904/DTD/svg10.dtd">
<svg version="1.0" xmlns="http://www.w3.org/2000/svg"
 width="300.000000pt" height="300.000000pt" viewBox="0 0 300.000000 300.000000"
 preserveAspectRatio="xMidYMid meet">
<metadata>
Created by potrace 1.10, written by Peter Selinger 2001-2011
</metadata>
<g transform="translate(0.000000,300.000000) scale(0.100000,-0.100000)"
fill="#000000" stroke="none">
<path d="M1230 2975 c-326 -60 -633 -234 -856 -487 -209 -237 -347 -559 -359
-838 l-5 -105 20 59 c11 33 21 61 23 62 1 1 2 -73 2 -166 0 -92 -3 -163 -7
-157 -4 7 -8 19 -8 28 0 9 -7 32 -15 50 -15 33 -16 30 -11 -71 17 -345 209
-721 498 -976 237 -209 558 -347 838 -359 98 -5 103 -4 73 10 -17 8 -43 16
-58 19 -15 3 -29 6 -30 8 -2 2 72 3 164 3 l167 0 -60 -20 -61 -20 60 -3 c193
-10 506 95 730 244 370 246 628 680 652 1094 6 110 2 119 -21 54 l-14 -39 -3
90 c-4 80 5 220 10 170 1 -11 8 -33 17 -50 13 -28 14 -22 9 75 -15 343 -207
721 -497 976 -243 215 -609 366 -877 363 l-66 -1 40 -19 40 -18 -125 0 -125 0
40 18 40 19 -75 0 c-41 0 -109 -6 -150 -13z m517 -91 c283 -49 554 -194 759
-407 159 -164 257 -325 328 -537 51 -152 69 -269 69 -440 0 -171 -18 -288 -69
-440 -71 -212 -169 -373 -328 -537 -207 -215 -473 -356 -768 -410 -125 -22
-352 -22 -478 1 -189 34 -402 121 -559 229 -107 74 -268 233 -343 337 -176
249 -261 518 -261 820 0 230 44 423 144 623 69 138 138 236 253 354 231 240
527 385 862 423 98 11 280 4 391 -16z"/>
<path d="M989 2506 c-130 -45 -199 -117 -199 -204 0 -29 -7 -45 -28 -65 -31
-30 -42 -33 -42 -14 0 7 -15 45 -34 84 -58 120 -93 119 -152 -4 -63 -130 -58
-240 13 -298 l25 -21 -23 -49 c-13 -28 -25 -52 -27 -54 -1 -3 -9 5 -18 17 -22
32 -73 80 -116 109 -30 20 -40 23 -57 14 -27 -15 -35 -48 -36 -146 0 -130 51
-222 135 -240 22 -5 30 -11 26 -22 -3 -8 -6 -32 -6 -53 l0 -37 -38 18 c-20 10
-75 24 -120 30 -100 15 -132 5 -132 -39 0 -62 135 -224 197 -237 15 -4 33 -8
40 -10 6 -2 25 0 41 5 27 7 30 5 36 -18 3 -15 8 -37 12 -48 5 -20 3 -21 -38
-17 -23 3 -77 -2 -118 -11 -120 -25 -135 -64 -51 -136 101 -86 217 -124 279
-91 11 6 23 11 25 11 5 0 57 -77 57 -84 0 -2 -15 -7 -32 -10 -43 -8 -149 -59
-166 -79 -29 -35 -11 -60 74 -104 124 -63 223 -68 282 -13 12 11 24 20 27 20
3 0 26 -15 52 -34 83 -59 185 -103 359 -156 93 -29 171 -54 173 -56 3 -2 -9
-19 -26 -37 -49 -51 -77 -115 -64 -143 7 -15 19 -24 33 -24 32 0 42 9 62 51 9
20 32 51 51 69 l35 34 35 -34 c19 -18 42 -49 51 -69 20 -42 30 -51 62 -51 14
0 26 9 33 24 13 28 -15 92 -64 143 -17 18 -29 35 -26 37 2 2 78 27 169 55 195
59 252 83 344 145 38 25 70 46 73 46 2 0 13 -9 25 -20 59 -55 158 -50 282 13
85 44 103 69 74 104 -17 20 -123 71 -165 79 -18 3 -33 8 -33 10 0 8 50 84 56
84 3 0 15 -5 26 -11 32 -17 112 -12 160 11 58 27 159 109 169 136 14 39 -14
61 -97 80 -42 9 -96 14 -121 11 -42 -4 -44 -3 -39 17 4 11 9 33 12 48 6 23 9
25 36 18 16 -5 35 -7 41 -5 7 2 25 6 40 10 62 13 197 175 197 237 0 44 -32 54
-132 39 -45 -6 -100 -20 -120 -30 l-38 -18 0 37 c0 21 -3 45 -6 53 -4 11 4 17
26 22 84 18 135 110 135 240 -1 98 -9 131 -36 146 -17 9 -27 6 -57 -14 -43
-29 -94 -77 -116 -109 -9 -12 -17 -20 -18 -17 -2 2 -14 26 -27 54 l-23 49 25
21 c71 58 76 168 13 298 -59 123 -94 124 -152 4 -19 -39 -34 -77 -34 -84 0
-20 -14 -15 -43 15 -20 21 -27 38 -27 67 0 84 -77 161 -207 204 -78 26 -98 26
-116 0 -18 -24 -6 -82 35 -171 42 -91 133 -157 198 -143 22 5 35 -3 82 -53
109 -114 188 -262 230 -429 31 -125 31 -323 -1 -443 -44 -165 -114 -287 -233
-408 -126 -127 -229 -186 -436 -246 -138 -41 -189 -59 -230 -80 -29 -15 -33
-14 -84 9 -29 13 -116 43 -193 66 -228 68 -308 111 -439 238 -127 123 -201
249 -247 421 -32 122 -32 328 0 450 45 168 122 310 229 422 46 49 60 58 80 53
63 -16 163 58 203 149 39 90 49 142 32 165 -18 27 -42 26 -124 -3z m86 -58
c-4 -18 -16 -49 -26 -68 l-18 -35 5 30 c6 33 -23 75 -54 75 -28 1 40 28 71 29
27 1 28 -1 22 -31z m925 17 c14 -8 20 -14 13 -15 -19 0 -53 -42 -53 -64 -1
-26 -39 49 -40 77 0 21 44 23 80 2z m-1008 -92 c-23 -44 -57 -78 -89 -88 -20
-5 -23 -3 -23 18 0 13 12 37 27 52 26 26 95 67 101 60 2 -2 -5 -20 -16 -42z
m1096 -16 c39 -38 45 -82 10 -72 -32 10 -67 44 -89 87 -10 21 -19 40 -19 43 0
11 66 -28 98 -58z m-1428 -92 c26 -52 42 -72 63 -80 26 -9 32 -6 68 32 21 23
39 52 39 64 l0 22 25 -23 c14 -13 25 -26 25 -30 0 -3 -18 -14 -40 -24 -47 -21
-103 -81 -179 -195 l-56 -84 -6 32 c-4 18 -16 42 -28 55 -30 31 -28 56 2 28
32 -30 51 -28 82 10 25 29 27 38 22 92 -4 48 -11 64 -35 88 l-29 29 -31 -26
c-35 -30 -40 -20 -16 28 38 75 48 73 94 -18z m1761 39 c9 -16 20 -40 24 -53
l8 -25 -33 28 -33 27 -29 -29 c-24 -24 -31 -40 -35 -88 -5 -54 -3 -63 22 -92
31 -37 54 -40 80 -12 29 32 29 15 0 -29 -19 -29 -26 -49 -23 -71 3 -16 4 -30
3 -30 -2 0 -28 40 -59 89 -71 113 -160 206 -205 216 l-33 7 28 30 29 29 7 -29
c9 -33 50 -78 80 -87 30 -10 63 19 83 72 20 54 43 85 59 80 6 -2 18 -17 27
-33z m-1793 -93 c16 -53 15 -103 -3 -127 -15 -19 -15 -19 -30 0 -8 11 -15 33
-15 48 0 38 20 118 30 118 4 0 12 -17 18 -39z m1781 -5 c15 -61 14 -98 -4
-122 -15 -19 -15 -19 -30 0 -8 11 -15 35 -15 54 0 40 20 112 30 112 4 0 13
-20 19 -44z m-1989 -279 c25 -24 58 -52 73 -62 27 -17 28 -17 51 4 33 31 37
26 20 -26 -8 -27 -24 -84 -35 -128 -29 -116 -27 -113 -49 -77 -11 18 -24 32
-30 32 -5 0 -10 5 -10 10 0 6 6 10 14 10 25 0 59 58 51 88 -11 46 -54 111 -84
127 -27 13 -30 13 -52 -11 -29 -31 -42 -19 -33 34 9 54 26 54 84 -1z m2238
-12 l3 -50 -28 27 -29 27 -32 -19 c-32 -20 -82 -105 -82 -141 0 -22 38 -69 56
-69 8 0 14 -2 14 -4 0 -8 -61 -69 -65 -64 -2 2 -11 35 -19 74 -8 38 -27 103
-41 144 l-25 74 34 -33 c34 -33 36 -33 60 -18 13 9 46 37 73 62 61 58 77 56
81 -10z m-2229 -70 c35 -49 51 -108 32 -120 -15 -8 -38 10 -55 44 -17 33 -30
121 -18 121 5 0 23 -20 41 -45z m2185 -2 c-7 -53 -25 -93 -48 -112 -23 -20
-39 -3 -33 35 6 34 63 124 79 124 5 0 6 -21 2 -47z m-2099 -518 l7 -50 -29 28
c-16 15 -37 27 -47 27 -16 0 -16 2 3 26 29 36 26 57 -10 99 -22 25 -27 35 -16
35 9 0 29 11 44 24 l28 24 6 -81 c4 -45 10 -104 14 -132z m2062 165 c11 0 6
-11 -16 -35 -36 -42 -39 -63 -10 -99 19 -24 19 -26 3 -26 -10 0 -31 -12 -47
-27 l-30 -28 7 40 c3 22 9 81 13 132 l6 92 29 -24 c16 -14 36 -25 45 -25z
m-2277 35 c0 -3 -9 -15 -20 -27 -29 -31 -25 -52 17 -100 36 -41 36 -42 4 -13
-41 37 -91 108 -91 129 0 12 11 16 45 16 25 0 45 -2 45 -5z m2490 -8 c0 -19
-60 -110 -67 -103 -4 3 -1 12 5 18 18 18 15 41 -8 66 -11 12 -20 24 -20 27 0
3 20 5 45 5 30 0 45 -4 45 -13z m-2448 -47 c43 -12 98 -55 98 -76 0 -9 -11
-14 -31 -14 -23 0 -43 12 -82 50 -53 51 -51 58 15 40z m2331 -40 c-39 -38 -59
-50 -82 -50 -19 0 -31 5 -31 13 0 32 90 86 145 86 16 1 9 -10 -32 -49z m-2044
-415 l34 -59 -36 31 c-26 23 -42 29 -61 26 -29 -6 -34 8 -11 27 8 7 15 21 15
32 0 23 -52 78 -74 78 -22 0 -20 6 11 45 l27 34 31 -77 c17 -43 46 -104 64
-137z m1891 143 c0 -5 -7 -8 -16 -8 -22 0 -74 -55 -74 -78 0 -11 7 -25 15 -32
23 -19 18 -33 -11 -27 -19 3 -35 -3 -62 -27 l-35 -31 40 75 c23 41 51 103 63
138 l23 63 28 -33 c16 -18 28 -36 29 -40z m-2161 -27 l-22 -29 24 -34 24 -33
-30 19 c-44 27 -75 58 -75 72 0 13 46 31 83 33 16 1 16 -2 -4 -28z m2324 18
c20 -5 37 -16 37 -23 0 -14 -31 -45 -75 -72 l-30 -19 24 33 24 34 -22 29 c-24
32 -18 35 42 18z m-2167 -54 c62 -40 -23 -61 -95 -23 -25 13 -47 30 -49 37 -7
20 110 8 144 -14z m2112 13 c-7 -20 -89 -58 -124 -58 -59 0 -53 41 10 59 48
14 118 13 114 -1z m-1754 -376 c-1 -1 -12 2 -25 7 -18 6 -34 3 -61 -10 -38
-20 -51 -12 -22 11 40 34 -12 101 -83 106 -21 2 -39 3 -41 3 -1 1 5 12 14 26
10 16 14 34 10 51 -5 19 20 -1 101 -83 59 -59 108 -109 107 -111z m1460 193
c-4 -16 0 -34 10 -50 9 -14 15 -25 14 -26 -2 0 -20 -1 -41 -3 -46 -4 -91 -34
-95 -65 -2 -14 6 -33 19 -47 27 -29 20 -30 -29 -5 -32 16 -42 17 -67 6 -22 -9
1 19 80 101 61 62 111 113 113 113 1 1 0 -10 -4 -24z m-1770 -125 c-18 -29
-17 -30 6 -55 16 -17 19 -25 9 -25 -20 0 -92 43 -96 57 -4 12 60 52 85 53 10
0 9 -8 -4 -30z m1916 8 c19 -13 34 -27 34 -33 1 -11 -73 -55 -93 -55 -10 0 -7
8 9 25 23 25 24 26 6 55 -22 38 -5 41 44 8z m-1752 -14 c29 -20 28 -29 -6 -43
-29 -12 -104 -2 -141 19 -18 10 -16 11 49 29 52 14 73 13 98 -5z m1640 5 c65
-16 70 -25 25 -40 -51 -16 -119 -17 -135 -1 -11 11 -9 17 11 33 27 22 36 23
99 8z m-868 -302 c25 0 56 3 69 8 l24 8 -18 -30 c-18 -30 -18 -32 4 -68 l21
-37 -37 31 c-46 38 -76 39 -120 5 l-35 -26 17 33 c16 31 16 34 0 62 l-18 30
24 -8 c13 -5 44 -8 69 -8z"/>
<path d="M930 1903 c-66 -24 -144 -107 -164 -173 -20 -68 -20 -115 1 -179 29
-92 117 -168 216 -186 20 -4 37 -8 37 -10 0 -1 -7 -20 -16 -41 -20 -49 -20
-149 0 -198 27 -66 73 -113 141 -147 57 -28 72 -31 132 -27 81 4 152 36 193
86 l28 34 39 -39 c53 -53 106 -76 186 -81 61 -4 75 -1 132 27 68 34 114 81
141 147 20 49 20 149 0 198 -9 21 -16 40 -16 41 0 2 16 6 35 9 169 32 269 195
221 361 -23 77 -98 154 -175 180 -104 34 -217 7 -290 -69 l-34 -35 -49 44
c-63 56 -130 79 -212 73 -72 -6 -112 -25 -170 -79 l-43 -38 -34 35 c-19 20
-52 45 -74 56 -54 28 -164 34 -225 11z m805 -133 c10 0 34 12 54 27 l35 27
-26 -34 c-34 -46 -58 -105 -58 -144 0 -118 115 -236 229 -236 l24 0 -21 -23
c-12 -13 -22 -36 -22 -52 l0 -29 -31 42 c-112 153 -337 118 -400 -60 -15 -43
-24 -48 -33 -15 -12 47 -65 116 -112 143 -38 22 -59 28 -108 28 -74 -1 -116
-20 -174 -83 -38 -42 -42 -44 -42 -21 0 13 -10 34 -22 47 l-21 23 24 0 c57 0
105 23 154 73 93 96 99 199 18 306 l-27 35 35 -27 c46 -35 66 -34 114 6 l40
32 -32 -40 c-37 -45 -63 -113 -63 -159 0 -48 43 -128 90 -169 86 -73 197 -72
284 4 106 94 109 231 8 343 -23 25 -20 24 19 -7 25 -20 54 -37 64 -37z m-637
45 c49 -21 81 -52 103 -100 48 -103 -11 -225 -123 -256 -163 -43 -298 145
-203 283 53 76 143 106 223 73z m477 -4 c133 -60 151 -236 34 -320 -143 -104
-335 27 -290 197 31 112 152 170 256 123z m475 -3 c26 -14 57 -41 75 -66 25
-37 30 -52 29 -101 -3 -202 -272 -260 -355 -76 -43 95 -2 201 96 246 54 25
102 24 155 -3z m-690 -429 c53 -30 83 -80 88 -148 8 -115 -67 -196 -183 -196
-78 0 -132 33 -164 97 -82 171 95 339 259 247z m423 20 c47 -13 106 -63 123
-106 34 -80 2 -184 -69 -231 -58 -39 -146 -38 -205 1 -109 72 -109 247 1 312
57 34 94 40 150 24z m-269 -233 c4 -19 23 -58 43 -87 l36 -53 -39 32 c-47 39
-63 40 -104 5 l-31 -26 30 48 c17 27 34 63 37 82 8 43 20 42 28 -1z"/>
</g>
</svg>
